<svg width="16" height="16" viewBox="0 0 16 16" fill="none" xmlns="http://www.w3.org/2000/svg">
<path d="M8 0.1875C6.45485 0.1875 4.94437 0.645695 3.65961 1.50415C2.37485 2.36259 1.3735 3.58274 0.782195 5.0103C0.190885 6.43785 0.0361715 8.00865 0.337618 9.52415C0.639065 11.0396 1.38313 12.4317 2.47573 13.5243C3.56833 14.6169 4.96039 15.361 6.47585 15.6624C7.99135 15.9639 9.56215 15.8091 10.9897 15.2178C12.4173 14.6265 13.6374 13.6251 14.4958 12.3404C15.3543 11.0556 15.8125 9.54515 15.8125 8C15.8102 5.9287 14.9863 3.94293 13.5217 2.47831C12.057 1.01369 10.0713 0.189836 8 0.1875ZM8 15.1875C6.57845 15.1875 5.1888 14.766 4.00684 13.9762C2.82487 13.1864 1.90362 12.0639 1.35962 10.7506C0.815615 9.4372 0.67328 7.99205 0.95061 6.5978C1.22794 5.20355 1.91249 3.92286 2.91768 2.91767C3.92287 1.91248 5.20355 1.22793 6.5978 0.950605C7.99205 0.673275 9.4372 0.81561 10.7506 1.35961C12.0639 1.90362 13.1864 2.82486 13.9762 4.00684C14.766 5.1888 15.1875 6.57845 15.1875 8C15.1853 9.9056 14.4274 11.7325 13.08 13.08C11.7325 14.4274 9.9056 15.1853 8 15.1875ZM5.18775 7.9996C5.18775 8.5899 5.3735 9.1652 5.71865 9.64405C6.0638 10.1229 6.55085 10.481 7.1108 10.6677C7.6708 10.8544 8.2753 10.8602 8.83875 10.6842C9.4022 10.5083 9.896 10.1596 10.2502 9.6874C10.3002 9.6218 10.3742 9.57865 10.4559 9.56735C10.5376 9.556 10.6205 9.57745 10.6865 9.627C10.7524 9.67655 10.7961 9.7502 10.808 9.83185C10.8199 9.9135 10.799 9.9965 10.75 10.0628C10.317 10.6398 9.7134 11.066 9.02475 11.2809C8.33615 11.4958 7.59735 11.4887 6.913 11.2605C6.22865 11.0323 5.63345 10.5946 5.2117 10.0093C4.78993 9.42405 4.56298 8.72095 4.56298 7.99955C4.56298 7.2782 4.78993 6.57505 5.2117 5.9898C5.63345 5.40455 6.22865 4.96683 6.913 4.73862C7.59735 4.5104 8.33615 4.50327 9.02475 4.71822C9.7134 4.93318 10.317 5.35935 10.75 5.93635C10.7998 6.0026 10.8211 6.0859 10.8095 6.168C10.7979 6.25005 10.7541 6.32415 10.6878 6.37395C10.6216 6.42375 10.5382 6.4452 10.4562 6.43355C10.3741 6.4219 10.3 6.37815 10.2502 6.31185C9.896 5.8397 9.4022 5.491 8.83875 5.31505C8.2753 5.1391 7.6708 5.1449 7.11085 5.33155C6.55085 5.51825 6.06385 5.87635 5.7187 6.3552C5.37355 6.83405 5.1878 7.40935 5.18775 7.9996Z" fill="#888A8E"/>
</svg>
