<svg width="32" height="32" viewBox="0 0 32 32" fill="none" xmlns="http://www.w3.org/2000/svg">
<path d="M16 0.375C12.9097 0.375 9.88874 1.29139 7.31922 3.00829C4.7497 4.72518 2.74701 7.16548 1.56439 10.0206C0.38177 12.8757 0.072343 16.0173 0.675237 19.0483C1.27813 22.0792 2.76627 24.8633 4.95146 27.0485C7.13666 29.2337 9.92077 30.7219 12.9517 31.3248C15.9827 31.9277 19.1243 31.6182 21.9794 30.4356C24.8345 29.253 27.2748 27.2503 28.9917 24.6808C30.7086 22.1113 31.625 19.0903 31.625 16C31.6203 11.8574 29.9726 7.88586 27.0434 4.95662C24.1141 2.02737 20.1426 0.379673 16 0.375ZM16 30.375C13.1569 30.375 10.3776 29.5319 8.01368 27.9524C5.64973 26.3728 3.80725 24.1278 2.71924 21.5011C1.63123 18.8744 1.34656 15.9841 1.90122 13.1956C2.45588 10.4071 3.82497 7.84572 5.83535 5.83534C7.84573 3.82496 10.4071 2.45587 13.1956 1.90121C15.9841 1.34655 18.8744 1.63122 21.5011 2.71923C24.1278 3.80724 26.3728 5.64972 27.9524 8.01368C29.5319 10.3776 30.375 13.1569 30.375 16C30.3707 19.8112 28.8548 23.465 26.1599 26.1599C23.465 28.8548 19.8112 30.3707 16 30.375ZM10.3755 15.9992C10.3755 17.1798 10.747 18.3304 11.4373 19.2881C12.1276 20.2458 13.1017 20.9621 14.2216 21.3354C15.3416 21.7088 16.5506 21.7204 17.6775 21.3685C18.8044 21.0167 19.792 20.3192 20.5005 19.3748C20.6005 19.2436 20.7484 19.1573 20.9118 19.1347C21.0752 19.112 21.241 19.1549 21.3729 19.254C21.5048 19.3531 21.5922 19.5004 21.616 19.6637C21.6398 19.827 21.598 19.993 21.4999 20.1256C20.6339 21.2796 19.4268 22.1319 18.0495 22.5618C16.6723 22.9917 15.1947 22.9775 13.826 22.521C12.4573 22.0646 11.2669 21.1892 10.4234 20.0186C9.57987 18.8481 9.12596 17.4419 9.12596 15.9991C9.12596 14.5564 9.57987 13.1501 10.4234 11.9796C11.2669 10.8091 12.4573 9.93367 13.826 9.47724C15.1947 9.0208 16.6723 9.00653 18.0495 9.43644C19.4268 9.86636 20.6339 10.7187 21.4999 11.8727C21.5995 12.0052 21.6423 12.1718 21.619 12.336C21.5958 12.5001 21.5082 12.6483 21.3757 12.7479C21.2432 12.8475 21.0765 12.8904 20.9124 12.8671C20.7482 12.8438 20.6001 12.7563 20.5005 12.6237C19.792 11.6794 18.8044 10.982 17.6775 10.6301C16.5506 10.2782 15.3416 10.2898 14.2217 10.6631C13.1017 11.0365 12.1277 11.7527 11.4374 12.7104C10.7471 13.6681 10.3756 14.8187 10.3755 15.9992Z" fill="#888A8E"/>
</svg>
