<svg width="56" height="56" viewBox="0 0 56 56" fill="none" xmlns="http://www.w3.org/2000/svg">
<path d="M20.8 0C26.3165 0 31.6071 2.19142 35.5078 6.09218C39.4086 9.99294 41.6 15.2835 41.6 20.8C41.6 25.952 39.712 30.688 36.608 34.336L37.472 35.2H40L56 51.2L51.2 56L35.2 40V37.472L34.336 36.608C30.5618 39.8297 25.7623 41.5997 20.8 41.6C15.2835 41.6 9.99294 39.4086 6.09218 35.5078C2.19142 31.6071 0 26.3165 0 20.8C0 15.2835 2.19142 9.99294 6.09218 6.09218C9.99294 2.19142 15.2835 0 20.8 0ZM20.8 6.4C12.8 6.4 6.4 12.8 6.4 20.8C6.4 28.8 12.8 35.2 20.8 35.2C28.8 35.2 35.2 28.8 35.2 20.8C35.2 12.8 28.8 6.4 20.8 6.4Z" fill="white"/>
</svg>
